<svg width="33" height="32" viewBox="0 0 33 32" fill="none" xmlns="http://www.w3.org/2000/svg">
<path d="M26.0706 10.05C25.6331 9.52498 25.0206 9.17498 24.3206 9.17498H13.9957C13.4707 9.17498 13.1207 9.52498 13.1207 10.05C13.1207 10.575 13.4707 10.925 13.9957 10.925H24.2331C24.4081 10.925 24.5831 11.0125 24.5831 11.1C24.6706 11.275 24.7581 11.45 24.6706 11.625L23.4456 16.9624C23.2706 17.8374 22.4831 18.4499 21.6081 18.4499H16.0082C15.1332 18.4499 14.4332 17.9249 14.1707 17.0499L13.4707 14.8624L11.6332 8.82498C11.1957 7.33749 9.88323 6.375 8.39575 6.375C7.87075 6.375 7.52075 6.725 7.52075 7.24999C7.52075 7.77499 7.87075 8.12499 8.39575 8.12499C9.09574 8.12499 9.79573 8.64998 9.97073 9.34998L10.5832 11.3625L12.5082 17.5749C12.9457 19.1499 14.3457 20.1999 16.0082 20.1999H21.7831C23.5331 20.1999 24.9331 18.9749 25.3706 17.3124L26.5956 11.975C26.6831 11.3625 26.5081 10.6625 26.0706 10.05Z" fill="#A9ADA5"/>
<path d="M15.3079 21.575C16.2565 21.5752 17.0823 22.4016 17.0823 23.3503C17.082 24.2989 16.2564 25.1245 15.3079 25.1248C14.3591 25.1248 13.5327 24.299 13.5325 23.3503C13.5325 22.4015 14.359 21.575 15.3079 21.575ZM15.3079 22.325C15.014 22.325 14.7616 22.4669 14.593 22.6355C14.4455 22.7831 14.3187 22.9945 14.2893 23.2419L14.2825 23.3503L14.2893 23.4578C14.3187 23.7052 14.4455 23.9166 14.593 24.0642C14.7616 24.2328 15.014 24.3748 15.3079 24.3748C15.6016 24.3746 15.8532 24.2327 16.0217 24.0642C16.1903 23.8957 16.3321 23.644 16.3323 23.3503C16.3323 23.0565 16.1903 22.8041 16.0217 22.6355C15.8741 22.4879 15.6628 22.3612 15.4153 22.3318L15.3079 22.325Z" fill="#A9ADA5" stroke="#A9ADA5"/>
<path d="M22.2218 21.575C23.1705 21.5752 23.9962 22.4016 23.9962 23.3503C23.996 24.2989 23.1703 25.1245 22.2218 25.1248C21.2731 25.1248 20.4466 24.299 20.4464 23.3503C20.4464 22.4015 21.273 21.575 22.2218 21.575ZM22.2218 22.325C21.9279 22.325 21.6756 22.4669 21.507 22.6355C21.3594 22.7831 21.2327 22.9945 21.2032 23.2419L21.1964 23.3503L21.2032 23.4578C21.2326 23.7052 21.3594 23.9166 21.507 24.0642C21.6756 24.2328 21.9279 24.3748 22.2218 24.3748C22.5155 24.3746 22.7671 24.2327 22.9357 24.0642C23.1042 23.8957 23.2461 23.644 23.2462 23.3503C23.2462 23.0565 23.1043 22.8041 22.9357 22.6355C22.7881 22.4879 22.5767 22.3612 22.3292 22.3318L22.2218 22.325Z" fill="#A9ADA5" stroke="#A9ADA5"/>
</svg>
