<svg width="33" height="32" viewBox="0 0 33 32" fill="none" xmlns="http://www.w3.org/2000/svg">
<path fill-rule="evenodd" clip-rule="evenodd" d="M16.2343 13.8808L14.997 12.6435C13.5165 11.1639 12.1935 10.75 11.203 10.75C10.1793 10.75 9.29991 11.1901 8.72153 11.7685C7.32853 13.1615 7.07041 14.4127 7.25503 15.5205C7.46066 16.7516 8.26303 18.0825 9.51166 19.381C10.7647 20.6944 12.2312 21.7461 13.6408 22.545C14.3312 22.9396 14.9122 23.2179 15.445 23.4209C15.746 23.5381 16.0138 23.595 16.1529 23.6248L16.2343 23.6422L16.3148 23.6248C16.4539 23.595 16.7225 23.5381 17.0235 23.4209C17.5555 23.2179 18.1374 22.9396 18.8278 22.545C20.2374 21.7461 21.7039 20.6944 22.9569 19.381C24.2055 18.0825 25.0079 16.7516 25.2127 15.5205C25.3973 14.4127 25.14 13.1615 23.747 11.7685C23.0861 11.1158 22.1945 10.7498 21.2655 10.75C20.275 10.75 18.952 11.1639 17.4715 12.6435L16.2343 13.8808ZM16.2343 11.4062C19.7343 7.90625 23.2343 8.78125 24.9843 10.5312C31.9843 17.5312 18.8593 25.4062 16.2343 25.4062C13.6093 25.4062 0.484285 17.5312 7.48428 10.5312C9.23428 8.78125 12.7343 7.90625 16.2343 11.4062Z" fill="#A9ADA5"/>
</svg>
