<svg width="32" height="32" viewBox="0 0 32 32" fill="none" xmlns="http://www.w3.org/2000/svg">
<path fill-rule="evenodd" clip-rule="evenodd" d="M16.5 6.375C16.1867 6.375 15.856 6.50537 15.6276 6.606C15.3677 6.71975 15.0361 6.89125 14.6852 7.09162C13.9948 7.48625 13.112 8.05588 12.167 8.72263C10.2866 10.0509 8.04135 11.8481 6.25635 13.6314C5.91422 13.9726 5.91422 14.5274 6.25635 14.8686C6.5976 15.2107 7.15235 15.2107 7.4936 14.8686C9.2086 13.1519 11.3383 11.4491 13.1767 10.1524C14.0911 9.50663 14.904 8.9825 15.5532 8.6115C15.8726 8.42863 16.1211 8.29913 16.3293 8.209C16.409 8.174 16.4641 8.153 16.5 8.14075C16.5358 8.153 16.591 8.174 16.6697 8.209C16.8788 8.29913 17.1274 8.42863 17.4467 8.6115C18.096 8.9825 18.9088 9.50663 19.8232 10.1524C21.6616 11.4491 23.7913 13.1519 25.5063 14.8686C25.8476 15.2107 26.4024 15.2107 26.7436 14.8686C27.0857 14.5274 27.0857 13.9726 26.7436 13.6314C24.9586 11.8481 22.7133 10.0509 20.833 8.72263C19.888 8.05588 19.0051 7.48625 18.3147 7.09162C17.9638 6.89125 17.6322 6.71975 17.3723 6.606C17.1431 6.50537 16.8132 6.375 16.5 6.375ZM19.9422 23.714C20.1032 23.6895 20.2555 23.6606 20.4007 23.6283L20.413 23.6256C21.2206 23.4506 21.5426 23.2039 21.7447 22.9344C22.0002 22.5931 22.2601 21.9517 22.422 20.6165L22.4228 20.6139C22.5672 19.4353 22.6136 17.9478 22.6232 16C22.625 15.517 23.017 15.125 23.5 15.125C23.983 15.125 24.375 15.517 24.3732 16C24.3277 24.8034 23.4938 25.625 16.5 25.625C9.5061 25.625 8.67222 24.8034 8.62672 16C8.62497 15.517 9.01697 15.125 9.49997 15.125C9.98297 15.125 10.375 15.517 10.3767 16C10.3863 17.9478 10.4327 19.4353 10.5771 20.6139L10.578 20.6165C10.7398 21.9517 10.9997 22.5931 11.2552 22.9344C11.4573 23.2039 11.7793 23.4506 12.5878 23.6256L12.5992 23.6283C12.7445 23.6606 12.8967 23.6895 13.0577 23.714C13.0148 23.0245 13 22.2108 13 21.25C13 16.7586 13.35 16 16.5 16C19.65 16 20 16.7586 20 21.25C20 22.2108 19.9851 23.0245 19.9422 23.714ZM18.1791 23.854C18.2334 23.1697 18.25 22.3315 18.25 21.25C18.25 20.1492 18.2325 19.3609 18.1581 18.7387V18.737C18.0872 18.135 17.9866 17.9311 17.9586 17.8856C17.9577 17.8848 17.9577 17.8839 17.9577 17.883C17.956 17.8786 17.9516 17.8751 17.9472 17.8751C17.9306 17.8742 17.9105 17.8725 17.8833 17.8673C17.8798 17.8664 17.8755 17.8655 17.8728 17.8646C17.5771 17.7684 17.2157 17.7482 16.5008 17.75H16.4991C15.7842 17.7482 15.4228 17.7684 15.1271 17.8646C15.1236 17.8655 15.1201 17.8664 15.1166 17.8673C15.0895 17.8725 15.0685 17.8742 15.0527 17.8751C15.0483 17.8751 15.044 17.8786 15.0422 17.883C15.0422 17.8848 15.0422 17.8848 15.0413 17.8856C15.0133 17.9311 14.9127 18.135 14.8418 18.737V18.7387C14.7675 19.3609 14.75 20.1492 14.75 21.25C14.75 22.3315 14.7666 23.1697 14.82 23.854C15.3178 23.8697 15.8735 23.875 16.5 23.875C17.1256 23.875 17.6812 23.8697 18.1791 23.854Z" fill="#A9ADA5"/>
</svg>
