<svg width="32" height="32" viewBox="0 0 32 32" fill="none" xmlns="http://www.w3.org/2000/svg">
<path fill-rule="evenodd" clip-rule="evenodd" d="M21.9399 19.0416C21.4919 18.0362 20.889 16.6275 20.889 15.1155C20.889 12.3855 20.1207 11.22 19.4522 10.6731C18.7172 10.072 17.683 9.86548 16.5131 9.86548C15.3441 9.86548 14.3099 10.072 13.5749 10.6731C12.9064 11.22 12.1381 12.3855 12.1381 15.1155C12.1381 16.6284 11.5352 18.0371 11.0872 19.0425C11.047 19.1326 11.0085 19.2192 10.9709 19.3032C10.5106 20.334 10.2744 20.8625 10.2455 21.2589C10.2455 21.2606 10.2446 21.2624 10.2446 21.2641C10.3032 21.3175 10.4257 21.4137 10.6375 21.4899C11.4959 21.8337 13.2345 22.1155 16.5131 22.1155C19.7926 22.1155 21.5312 21.8337 22.3887 21.4899C22.6014 21.4137 22.7239 21.3166 22.7825 21.2632C22.7825 21.2615 22.7816 21.2597 22.7816 21.258C22.7527 20.8616 22.5165 20.3322 22.0554 19.2997C22.0186 19.2175 21.9801 19.1309 21.9399 19.0416ZM22.7886 21.3402C22.786 21.335 22.7834 21.314 22.7869 21.2947C22.7921 21.3359 22.7904 21.3455 22.7886 21.3402ZM10.2385 21.3411C10.2367 21.3464 10.235 21.3367 10.2402 21.2965C10.2429 21.3157 10.2402 21.3359 10.2385 21.3411ZM23.696 18.6802C23.1885 17.5559 22.639 16.3361 22.639 15.1155C22.639 8.99048 19.139 8.11548 16.5131 8.11548C13.889 8.11548 10.3881 8.99048 10.3881 15.1155C10.3881 16.337 9.83774 17.5567 9.33024 18.682C8.01862 21.5922 6.99312 23.8655 16.5131 23.8655C26.0349 23.8655 25.0085 21.5905 23.696 18.6802Z" fill="#A9ADA5"/>
<path fill-rule="evenodd" clip-rule="evenodd" d="M17.781 7.32087C18.0374 7.35325 18.2798 7.16687 18.2281 6.914C18.0671 6.123 17.3575 5.5 16.5131 5.5C15.6679 5.5 14.9591 6.123 14.7981 6.914C14.7465 7.16687 14.9889 7.35325 15.2453 7.32087C16.0809 7.21412 16.9454 7.21412 17.781 7.32087Z" fill="#A9ADA5"/>
<path fill-rule="evenodd" clip-rule="evenodd" d="M13.8557 24.672C13.3963 24.6414 12.972 24.9958 13.1207 25.4315C13.5582 26.7143 15.2321 27.3749 16.5131 27.3749C17.795 27.3749 19.4671 26.7143 19.9055 25.4315C20.0542 24.9958 19.6298 24.6414 19.1705 24.672C18.6848 24.7044 18.1677 25.1751 17.7206 25.3676C17.2927 25.5531 16.7336 25.6249 16.5131 25.6249C16.2497 25.6249 15.695 25.5654 15.2802 25.3851C14.8331 25.1918 14.3413 24.7044 13.8557 24.672Z" fill="#A9ADA5"/>
</svg>
