<svg width="33" height="32" viewBox="0 0 33 32" fill="none" xmlns="http://www.w3.org/2000/svg">
<path fill-rule="evenodd" clip-rule="evenodd" d="M24.7708 16C24.7708 20.4299 21.1799 24.0208 16.75 24.0208C12.3201 24.0208 8.72917 20.4299 8.72917 16C8.72917 11.5701 12.3201 7.97917 16.75 7.97917C21.1799 7.97917 24.7708 11.5701 24.7708 16ZM26.375 16C26.375 21.3154 22.0654 25.625 16.75 25.625C11.4346 25.625 7.125 21.3154 7.125 16C7.125 10.6846 11.4346 6.375 16.75 6.375C22.0654 6.375 26.375 10.6846 26.375 16Z" fill="#A9ADA5"/>
<path fill-rule="evenodd" clip-rule="evenodd" d="M21.2874 11.4625C21.4107 11.5858 21.4905 11.7459 21.5146 11.9185C21.5388 12.0912 21.506 12.267 21.4213 12.4194L18.5852 17.5239C18.5125 17.6546 18.4047 17.7624 18.274 17.8351L13.1695 20.6712C13.0171 20.756 12.8413 20.7888 12.6686 20.7646C12.4959 20.7405 12.3358 20.6607 12.2125 20.5374C12.0892 20.4141 12.0094 20.254 11.9853 20.0813C11.9611 19.9086 11.9939 19.7328 12.0787 19.5804L14.9148 14.4759C14.9875 14.3452 15.0953 14.2374 15.2261 14.1647L20.3305 11.3286C20.4829 11.2439 20.6587 11.2111 20.8314 11.2353C21.004 11.2595 21.1641 11.3392 21.2874 11.4625ZM16.2054 15.4553L14.8443 17.9056L17.2946 16.5445L18.6558 14.0941L16.2054 15.4553Z" fill="#A9ADA5"/>
</svg>
