<svg width="24" height="24" viewBox="0 0 24 24" fill="none" xmlns="http://www.w3.org/2000/svg">
<path fill-rule="evenodd" clip-rule="evenodd" d="M19.6666 12C19.6666 15.682 16.682 18.6667 13 18.6667C10.2267 18.6667 7.84933 16.9733 6.84466 14.5647L5.61333 15.078C6.82 17.968 9.67199 20 13 20C17.418 20 21 16.418 21 12C21 7.582 17.418 4 13 4C8.58199 4 5 7.582 5 12H6.33333C6.33333 8.318 9.31799 5.33333 13 5.33333C16.682 5.33333 19.6666 8.318 19.6666 12Z" fill="black"/>
<path fill-rule="evenodd" clip-rule="evenodd" d="M5.1953 13.138C5.32032 13.263 5.48986 13.3332 5.66664 13.3332C5.84341 13.3332 6.01295 13.263 6.13797 13.138L8.13796 11.138C8.1999 11.0761 8.24905 11.0026 8.28259 10.9217C8.31612 10.8409 8.3334 10.7542 8.33343 10.6666C8.33346 10.579 8.31625 10.4923 8.28277 10.4114C8.24928 10.3305 8.20019 10.257 8.1383 10.195C8.0764 10.1331 8.00291 10.0839 7.92202 10.0504C7.84114 10.0169 7.75443 9.99958 7.66687 9.99955C7.5793 9.99952 7.49259 10.0167 7.41168 10.0502C7.33076 10.0837 7.25724 10.1328 7.1953 10.1947L6.4033 11.0567H5.05197L4.13864 10.1947C4.01355 10.0696 3.84388 9.99932 3.66697 9.99932C3.49007 9.99932 3.3204 10.0696 3.19531 10.1947C3.07022 10.3198 2.99994 10.4894 2.99994 10.6664C2.99994 10.8433 3.07022 11.0129 3.19531 11.138L5.1953 13.138ZM5.97464 14.2087C5.8114 14.2764 5.68172 14.4061 5.61409 14.5694C5.54646 14.7326 5.54642 14.9161 5.61397 15.0794L6.84597 14.5694C6.81245 14.4884 6.76333 14.4149 6.7014 14.353C6.63946 14.2911 6.56594 14.242 6.48502 14.2085C6.40411 14.175 6.31738 14.1578 6.22981 14.1578C6.14224 14.1578 6.05553 14.1751 5.97464 14.2087ZM12.76 12.6667C12.5831 12.6667 12.4136 12.5964 12.2886 12.4714C12.1635 12.3464 12.0933 12.1768 12.0933 12V7.33335C12.0933 7.15654 12.1635 6.98697 12.2886 6.86195C12.4136 6.73693 12.5831 6.66669 12.76 6.66669C12.9368 6.66669 13.1063 6.73693 13.2314 6.86195C13.3564 6.98697 13.4266 7.15654 13.4266 7.33335V12C13.4266 12.1768 13.3564 12.3464 13.2314 12.4714C13.1063 12.5964 12.9368 12.6667 12.76 12.6667Z" fill="black"/>
<path fill-rule="evenodd" clip-rule="evenodd" d="M16.8014 14.3347C16.713 14.4878 16.5674 14.5995 16.3966 14.6453C16.2258 14.6911 16.0438 14.6671 15.8907 14.5787L12.4267 12.5787C12.2749 12.4897 12.1644 12.3442 12.1194 12.174C12.0744 12.0038 12.0985 11.8227 12.1866 11.6702C12.2746 11.5178 12.4193 11.4063 12.5892 11.3602C12.7591 11.3141 12.9404 11.337 13.0934 11.424L16.5574 13.424C16.7105 13.5124 16.8222 13.6581 16.868 13.8288C16.9137 13.9996 16.8898 14.1816 16.8014 14.3347Z" fill="black"/>
</svg>
