<svg width="24" height="24" viewBox="0 0 24 24" fill="none" xmlns="http://www.w3.org/2000/svg">
<g clip-path="url(#clip0_156_55152)">
<path d="M19.8428 15.2123C19.8164 16.3733 19.3684 17.4851 18.5823 18.34C17.7962 19.1949 16.7258 19.7345 15.5711 19.8579L10.1421 20.429C9.00666 20.547 7.86653 20.2544 6.92818 19.6044C5.98983 18.9543 5.31532 17.9897 5.02682 16.8852C5.08878 16.8938 5.14746 16.9102 5.21104 16.9145C6.20739 16.9792 7.16691 17.3159 7.98522 17.888C8.54958 18.288 9.24034 18.4687 9.92829 18.3963C10.6162 18.324 11.2543 18.0035 11.7231 17.4948C12.6205 16.5331 13.835 15.9278 15.1432 15.7903L19.215 15.362C19.4295 15.3373 19.6402 15.287 19.8428 15.2123ZM4.00646 14.2816C4.03832 14.6116 4.18541 14.9198 4.42189 15.1522C4.65838 15.3845 4.96916 15.5261 5.29966 15.5521C6.54484 15.6334 7.74391 16.0545 8.76643 16.7697C9.06248 16.9791 9.42457 17.0736 9.78518 17.0357C10.1458 16.9978 10.4803 16.83 10.7263 16.5636C11.8479 15.3617 13.3656 14.6052 15.0005 14.433L19.0722 14.0048C19.4322 13.9669 19.7624 13.7876 19.9901 13.5063C20.2179 13.225 20.3246 12.8647 20.2867 12.5048C20.2489 12.1448 20.0695 11.8146 19.7882 11.5869C19.5069 11.3591 19.1467 11.2524 18.7867 11.2903L5.27804 12.7111C4.90116 12.7507 4.55546 12.9385 4.31699 13.233C4.07852 13.5275 3.96682 13.9047 4.00646 14.2816ZM19.3222 9.85757L19.3327 9.95801C19.1051 9.92049 18.8737 9.9121 18.644 9.93302L5.13528 11.3538C4.88414 11.384 4.63835 11.4486 4.40486 11.5459L4.39244 11.4279C4.20518 9.62844 4.73936 7.82822 5.87779 6.42217C7.01621 5.01612 8.6659 4.11908 10.4649 3.92786L11.8222 3.78511C13.6216 3.59785 15.4218 4.13203 16.8279 5.27045C18.2339 6.40888 19.1309 8.05857 19.3222 9.85757ZM8.25005 8.96373C8.23112 8.78375 8.14147 8.61866 8.00082 8.50478C7.86016 8.3909 7.68003 8.33756 7.50005 8.35649C7.32007 8.37542 7.15498 8.46507 7.0411 8.60572C6.92722 8.74637 6.87387 8.9265 6.8928 9.10649C6.91174 9.28647 7.00139 9.45156 7.14204 9.56544C7.28269 9.67932 7.46282 9.73266 7.6428 9.71373C7.82279 9.6948 7.98788 9.60515 8.10176 9.4645C8.21564 9.32385 8.26898 9.14371 8.25005 8.96373ZM10.0718 6.71373C10.0529 6.53375 9.96321 6.36866 9.82256 6.25478C9.6819 6.1409 9.50177 6.08756 9.32179 6.10649C9.14181 6.12542 8.97672 6.21507 8.86284 6.35572C8.74896 6.49637 8.69561 6.6765 8.71454 6.85649C8.73347 7.03647 8.82313 7.20156 8.96378 7.31544C9.10443 7.42932 9.28456 7.48266 9.46454 7.46373C9.64453 7.4448 9.80962 7.35515 9.9235 7.2145C10.0374 7.07385 10.0907 6.89371 10.0718 6.71373Z" fill="#363A33"/>
</g>
<defs>
<clipPath id="clip0_156_55152">
<rect width="16.3768" height="16.3768" fill="white" transform="translate(3 4.71301) rotate(-6.00422)"/>
</clipPath>
</defs>
</svg>
