<svg width="24" height="24" viewBox="0 0 24 24" fill="none" xmlns="http://www.w3.org/2000/svg">
<path fill-rule="evenodd" clip-rule="evenodd" d="M9.45921 4.8041C9.94761 3.82974 10.8667 3.20001 11.9955 3.20001C13.1352 3.20001 14.0583 3.84217 14.5415 4.897L15.7383 7.41022L18.3577 7.78353C19.4209 7.89786 20.3079 8.71081 20.618 9.69378C21.0134 10.7207 20.6909 11.8344 20.3591 12.4965L20.3009 12.6127L18.2402 14.6682L18.6844 17.4536C18.8851 18.5767 18.3727 19.6842 17.4646 20.2882C16.5969 20.8652 15.4753 20.9954 14.522 20.4675C14.5218 20.4674 14.5222 20.4676 14.522 20.4675L12.1411 19.155L9.74492 20.4759L9.7302 20.4833C9.3272 20.6843 8.9135 20.7854 8.42618 20.7854C7.79288 20.7854 7.28495 20.5689 6.84987 20.3086L6.83353 20.2988L6.81768 20.2882C5.90948 19.6842 5.39714 18.5766 5.59785 17.4536L6.04209 14.6682L4.0734 12.7044C3.29457 11.9275 2.97386 10.8152 3.36919 9.70549C3.69338 8.66109 4.61475 7.98454 5.57454 7.79312L5.58713 7.79061L8.24752 7.3483L9.45558 4.81133L9.45921 4.8041ZM10.8929 5.51452L9.33326 8.78975L5.87624 9.36451C5.39138 9.46509 5.01281 9.79549 4.89458 10.1886L4.88797 10.2106L4.8801 10.2322C4.70446 10.714 4.82171 11.1909 5.20338 11.5717L7.75089 14.1128L7.17521 17.7223L7.17362 17.731C7.0886 18.1975 7.29807 18.6778 7.68911 18.9461C7.97373 19.1142 8.19017 19.1854 8.42618 19.1854C8.66131 19.1854 8.8279 19.1433 9.00271 19.0581L12.1411 17.328L15.2953 19.0668L15.2969 19.0676C15.6547 19.2659 16.1353 19.2507 16.5785 18.956C16.9789 18.6897 17.1947 18.2033 17.1086 17.731L17.1071 17.7223L16.5314 14.1128L18.9806 11.6697C19.1907 11.1977 19.2749 10.6427 19.1199 10.2559L19.1066 10.2228L19.0963 10.1886C18.9612 9.73925 18.5537 9.41094 18.1805 9.37372L18.1637 9.37205L14.6628 8.87311L13.0884 5.56702C12.8424 5.02718 12.4558 4.80001 11.9955 4.80001C11.5238 4.80001 11.1332 5.04001 10.8929 5.51452Z" fill="black"/>
</svg>
